<svg width="24" height="24" viewBox="0 0 24 24" fill="none" xmlns="http://www.w3.org/2000/svg">
<g clip-path="url(#clip0_137_3120)">
<path d="M11.9596 22.2059C17.5646 22.2059 22.2051 17.5553 22.2051 11.9604C22.2051 6.35547 17.5545 1.71484 11.9496 1.71484C6.35473 1.71484 1.71411 6.35547 1.71411 11.9604C1.71411 17.5553 6.36478 22.2059 11.9596 22.2059ZM11.9596 20.4984C7.21858 20.4984 3.43175 16.7015 3.43175 11.9604C3.43175 7.21931 7.20853 3.42244 11.9496 3.42244C16.6907 3.42244 20.4976 7.21931 20.4976 11.9604C20.4976 16.7015 16.7007 20.4984 11.9596 20.4984ZM7.29893 11.9604C7.29893 12.4525 7.64045 12.7841 8.15273 12.7841H11.1058V15.7472C11.1058 16.2494 11.4474 16.601 11.9396 16.601C12.4418 16.601 12.7934 16.2595 12.7934 15.7472V12.7841H15.7565C16.2588 12.7841 16.6103 12.4525 16.6103 11.9604C16.6103 11.4582 16.2588 11.1066 15.7565 11.1066H12.7934V8.15346C12.7934 7.64118 12.4418 7.28962 11.9396 7.28962C11.4474 7.28962 11.1058 7.64118 11.1058 8.15346V11.1066H8.15273C7.64045 11.1066 7.29893 11.4582 7.29893 11.9604Z" fill="#776EA5"/>
</g>
<defs>
<clipPath id="clip0_137_3120">
<rect width="20.491" height="20.5011" fill="white" transform="translate(1.71423 1.71387)"/>
</clipPath>
</defs>
</svg>
