<svg width="24" height="24" viewBox="0 0 24 24" fill="none" xmlns="http://www.w3.org/2000/svg">
<g opacity="0.7">
<path d="M18.9418 12.368L11.559 19.7509C9.64048 21.6794 7.059 21.4886 5.41168 19.8212C3.75432 18.1739 3.56346 15.6125 5.482 13.6839L15.5568 3.61919C16.7119 2.46405 18.4095 2.30334 19.5144 3.3982C20.6092 4.51315 20.4485 6.20065 19.3035 7.35579L9.45967 17.1996C8.96748 17.7118 8.36481 17.5611 8.02329 17.2196C7.68177 16.868 7.54115 16.2855 8.03334 15.7732L14.9139 8.91271C15.2152 8.60133 15.2354 8.15936 14.944 7.86807C14.6528 7.58682 14.2108 7.60691 13.9095 7.90825L7.00878 14.8089C5.98422 15.8335 6.02441 17.4004 6.92843 18.3044C7.9128 19.2889 9.39941 19.2687 10.434 18.2341L20.318 8.35021C22.1963 6.47186 22.1159 4.00088 20.4787 2.3636C18.8816 0.766506 16.3704 0.64597 14.4921 2.52432L4.36704 12.6594C1.88601 15.1404 2.07686 18.6861 4.31682 20.9261C6.55677 23.156 10.1025 23.3468 12.5835 20.8759L20.0166 13.4429C20.3079 13.1515 20.3079 12.6192 20.0066 12.348C19.7152 12.0366 19.2432 12.0768 18.9418 12.368Z" fill="black"/>
</g>
</svg>
