<svg width="16" height="16" viewBox="0 0 16 16" fill="none" xmlns="http://www.w3.org/2000/svg">
<path d="M13.1427 8.35315V2.85792C13.1427 2.58517 13.0343 2.32353 12.8415 2.13057C12.6485 1.93771 12.3869 1.82935 12.1141 1.82935H10.5712V1.31506C10.5712 1.13127 10.4732 0.961496 10.3141 0.869659C10.155 0.777822 9.95893 0.777822 9.79982 0.869659C9.64071 0.961496 9.54268 1.13128 9.54268 1.31506V1.82935H7.48553V1.31506C7.48553 1.13127 7.3875 0.961496 7.22839 0.869659C7.06928 0.777822 6.87321 0.777822 6.7141 0.869659C6.55499 0.961496 6.45696 1.13128 6.45696 1.31506V1.82935H4.39981V1.31506C4.39981 1.13127 4.30178 0.961496 4.14267 0.869659C3.98356 0.777822 3.78749 0.777822 3.62838 0.869659C3.46927 0.961496 3.37124 1.13128 3.37124 1.31506V1.82935H1.82838C1.55562 1.82935 1.29399 1.93771 1.10103 2.13057C0.908172 2.32354 0.799805 2.58517 0.799805 2.85792V10.5722C0.799805 10.845 0.908172 11.1066 1.10103 11.2996C1.294 11.4924 1.55563 11.6008 1.82838 11.6008H7.99982C7.99867 12.4641 8.30771 13.2991 8.87078 13.9536C9.43374 14.608 10.2132 15.0383 11.0671 15.166C11.9208 15.2938 12.7921 15.1106 13.522 14.6496C14.252 14.1887 14.792 13.4807 15.0436 12.6549C15.2951 11.829 15.2416 10.9404 14.8926 10.1507C14.5438 9.36103 13.9227 8.72314 13.1427 8.35315ZM3.37124 2.85792V3.37221C3.37124 3.556 3.46927 3.72577 3.62838 3.81761C3.78749 3.90945 3.98356 3.90945 4.14267 3.81761C4.30177 3.72577 4.39981 3.55599 4.39981 3.37221V2.85792H6.45696V3.37221C6.45696 3.556 6.55499 3.72577 6.7141 3.81761C6.87321 3.90945 7.06928 3.90945 7.22839 3.81761C7.38749 3.72577 7.48553 3.55599 7.48553 3.37221V2.85792H9.54268V3.37221C9.54268 3.556 9.64071 3.72577 9.79982 3.81761C9.95893 3.90945 10.155 3.90945 10.3141 3.81761C10.4732 3.72577 10.5712 3.55599 10.5712 3.37221V2.85792H12.1141V4.40078H1.82838V2.85792H3.37124ZM1.82838 10.5722V5.42935H12.1141V8.04187C11.2595 7.91135 10.3864 8.09617 9.65782 8.56168C8.92921 9.02719 8.39482 9.74178 8.1541 10.5722H1.82838ZM11.5998 14.1722C10.9178 14.1722 10.2638 13.9013 9.78157 13.419C9.29932 12.9368 9.02839 12.2828 9.02839 11.6008C9.02839 10.9188 9.29931 10.2648 9.78157 9.78254C10.2638 9.30029 10.9178 9.02936 11.5998 9.02936C12.2818 9.02936 12.9358 9.30028 13.4181 9.78254C13.9003 10.2648 14.1713 10.9188 14.1713 11.6008C14.1705 12.2826 13.8993 12.9361 13.4172 13.4181C12.9351 13.9003 12.2816 14.1714 11.5998 14.1722ZM12.1141 10.0579V11.6008C12.1141 11.7372 12.0599 11.8679 11.9634 11.9644L11.2362 12.6916C11.1403 12.7908 11.0087 12.8474 10.8707 12.8486C10.7329 12.8498 10.6002 12.7955 10.5026 12.698C10.4051 12.6004 10.3508 12.4677 10.352 12.3299C10.3533 12.1919 10.4098 12.0602 10.509 11.9643L11.0855 11.3878V10.0579C11.0855 9.87414 11.1836 9.70436 11.3427 9.61253C11.5018 9.52069 11.6979 9.52069 11.857 9.61253C12.0161 9.70436 12.1141 9.87415 12.1141 10.0579ZM4.3141 6.97221C4.3141 7.10859 4.25991 7.23946 4.16348 7.33589C4.06706 7.43232 3.93619 7.4865 3.79981 7.4865H3.37124C3.18745 7.4865 3.01767 7.38847 2.92584 7.22936C2.834 7.07025 2.834 6.87418 2.92584 6.71507C3.01767 6.55597 3.18746 6.45793 3.37124 6.45793H3.79981C3.93619 6.45793 4.06706 6.51211 4.16348 6.60854C4.25991 6.70497 4.3141 6.83584 4.3141 6.97221ZM4.3141 9.02936C4.3141 9.16574 4.25991 9.29661 4.16348 9.39303C4.06706 9.48946 3.93619 9.54365 3.79981 9.54365H3.37124C3.18745 9.54365 3.01767 9.44561 2.92584 9.2865C2.834 9.1274 2.834 8.93132 2.92584 8.77222C3.01767 8.61311 3.18746 8.51507 3.37124 8.51507H3.79981C3.93619 8.51507 4.06706 8.56926 4.16348 8.66569C4.25991 8.76211 4.3141 8.89298 4.3141 9.02936ZM7.39982 6.97221C7.39982 7.10859 7.34563 7.23946 7.2492 7.33589C7.15278 7.43232 7.02191 7.4865 6.88553 7.4865H6.45696C6.27317 7.4865 6.10339 7.38847 6.01156 7.22936C5.91972 7.07025 5.91972 6.87418 6.01156 6.71507C6.10339 6.55597 6.27317 6.45793 6.45696 6.45793H6.88553C7.02191 6.45793 7.15278 6.51211 7.2492 6.60854C7.34563 6.70497 7.39982 6.83584 7.39982 6.97221ZM7.39982 9.02936C7.39982 9.16574 7.34563 9.29661 7.2492 9.39303C7.15278 9.48946 7.02191 9.54365 6.88553 9.54365H6.45696C6.27317 9.54365 6.10339 9.44561 6.01156 9.2865C5.91972 9.1274 5.91972 8.93132 6.01156 8.77222C6.10339 8.61311 6.27317 8.51507 6.45696 8.51507H6.88553C7.02191 8.51507 7.15278 8.56926 7.2492 8.66569C7.34563 8.76211 7.39982 8.89298 7.39982 9.02936ZM9.02839 6.97221C9.02839 6.83584 9.08257 6.70497 9.179 6.60854C9.27543 6.51211 9.4063 6.45793 9.54268 6.45793H9.97125C10.155 6.45793 10.3248 6.55596 10.4167 6.71507C10.5085 6.87418 10.5085 7.07025 10.4167 7.22936C10.3248 7.38846 10.155 7.4865 9.97125 7.4865H9.54268C9.4063 7.4865 9.27543 7.43232 9.179 7.33589C9.08257 7.23946 9.02839 7.10859 9.02839 6.97221Z" fill="black"/>
</svg>
