<svg width="20" height="21" viewBox="0 0 20 21" fill="none" xmlns="http://www.w3.org/2000/svg">
<path d="M16.2422 1.61354H14.9682V0.828022C14.9682 0.382088 14.6073 0 14.1402 0C13.6731 0 13.3122 0.360914 13.3122 0.828022V1.61354H6.68799V0.828022C6.68799 0.382088 6.32707 0 5.85996 0C5.39287 0 5.03194 0.360914 5.03194 0.828022V1.61354H3.75799C1.67735 1.61354 0 3.29074 0 5.37153V16.4118C0 18.4925 1.69855 20.1698 3.75799 20.1698H16.242C18.3226 20.1698 20 18.4926 20 16.4118V5.37153C20 3.2909 18.3015 1.61354 16.242 1.61354H16.2422ZM3.75814 3.24839H5.03209V4.03392C5.03209 4.47985 5.39301 4.86194 5.86012 4.86194C6.32721 4.86194 6.68814 4.50103 6.68814 4.03392V3.24839H13.3123V4.03392C13.3123 4.47985 13.6732 4.86194 14.1403 4.86194C14.6074 4.86194 14.9684 4.50103 14.9684 4.03392V3.24839H16.2423C17.4101 3.24839 18.3443 4.20377 18.3443 5.37153V6.45429H1.65642V5.37153C1.65642 4.20377 2.59049 3.24839 3.75825 3.24839H3.75814ZM16.2422 18.5137H3.75814C2.59038 18.5137 1.635 17.5584 1.635 16.3906V8.08914H18.3441V16.3906C18.3441 17.5795 17.41 18.5137 16.2422 18.5137H16.2422Z" fill="white"/>
</svg>
