<svg width="24" height="24" viewBox="0 0 24 24" fill="none" xmlns="http://www.w3.org/2000/svg">
<g opacity="0.7">
<g clip-path="url(#clip0_115_8969)">
<path d="M5.14294 11.4736C5.14294 15.4112 7.74451 18.1734 11.5715 18.4948V20.8352H7.84495C7.42308 20.8352 7.08156 21.1767 7.08156 21.5986C7.08156 22.0205 7.42308 22.352 7.84495 22.352H16.8148C17.2367 22.352 17.5782 22.0205 17.5782 21.5986C17.5782 21.1767 17.2367 20.8352 16.8148 20.8352H13.0883V18.4948C16.9253 18.1734 19.5168 15.4112 19.5168 11.4736V9.43456C19.5168 9.01269 19.1853 8.68122 18.7635 8.68122C18.3416 8.68122 18.0001 9.01269 18.0001 9.43456V11.4134C18.0001 14.8386 15.7701 17.1086 12.3349 17.1086C8.88959 17.1086 6.65968 14.8386 6.65968 11.4134V9.43456C6.65968 9.01269 6.32821 8.68122 5.89629 8.68122C5.47442 8.68122 5.14294 9.01269 5.14294 9.43456V11.4736ZM8.67866 11.112C8.67866 13.4223 10.1653 15.0495 12.3349 15.0495C14.4945 15.0495 15.9811 13.4223 15.9811 11.112V4.79395C15.9811 2.47363 14.4945 0.856445 12.3349 0.856445C10.1653 0.856445 8.67866 2.47363 8.67866 4.79395V11.112ZM10.1954 11.112V4.79395C10.1954 3.30734 11.0492 2.35309 12.3349 2.35309C13.6206 2.35309 14.4644 3.30734 14.4644 4.79395V11.112C14.4644 12.5986 13.6206 13.5529 12.3349 13.5529C11.0492 13.5529 10.1954 12.5986 10.1954 11.112Z" fill="black"/>
</g>
</g>
<defs>
<clipPath id="clip0_115_8969">
<rect width="14.3739" height="22.9319" fill="white" transform="translate(5.14282 0.857422)"/>
</clipPath>
</defs>
</svg>
