<svg width="24" height="24" viewBox="0 0 24 24" fill="none" xmlns="http://www.w3.org/2000/svg" class="dashboardIconSVG">
<g clip-path="url(#clip0_351_4001)">
<path d="M0.979553 18.2564C0.979553 18.6524 1.30672 18.971 1.69416 18.971H22.5124C22.9085 18.971 23.227 18.6524 23.227 18.2564C23.227 17.8604 22.9085 17.5418 22.5124 17.5418H22.0475V5.93592C22.0475 5.16966 21.5223 4.65308 20.7216 4.65308H3.45915C2.66706 4.65308 2.13325 5.16966 2.13325 5.93592V17.5418H1.69416C1.30672 17.5418 0.979553 17.8604 0.979553 18.2564ZM3.52802 11.2481V6.28031C3.52802 6.14255 3.61412 6.03924 3.74327 6.03924H11.5265V11.2481H3.52802ZM12.6543 11.2481V6.03924H20.4461C20.5752 6.03924 20.6613 6.14255 20.6613 6.28031V11.2481H12.6543ZM3.52802 17.5418V12.376H11.5265V17.5418H3.52802ZM12.6543 17.5418V12.376H20.6613V17.5418H12.6543Z" fill="white"/>
</g>
<defs>
<clipPath id="clip0_351_4001">
<rect width="22.2474" height="14.3351" fill="white" transform="translate(0.979553 4.65308)"/>
</clipPath>
</defs>
</svg>
