<svg width="14" height="14" viewBox="0 0 14 14" fill="none" xmlns="http://www.w3.org/2000/svg">
<g clip-path="url(#clip0_117_5172)">
<path d="M11.6666 2.33228H2.33329C1.69163 2.33228 1.17246 2.85728 1.17246 3.49894L1.16663 10.4989C1.16663 11.1406 1.69163 11.6656 2.33329 11.6656H11.6666C12.3083 11.6656 12.8333 11.1406 12.8333 10.4989V3.49894C12.8333 2.85728 12.3083 2.33228 11.6666 2.33228ZM11.4333 4.81144L7.30913 7.38978C7.12246 7.50644 6.87746 7.50644 6.69079 7.38978L2.56663 4.81144C2.42079 4.71811 2.33329 4.56061 2.33329 4.39144C2.33329 4.00061 2.75913 3.76728 3.09163 3.97144L6.99996 6.41561L10.9083 3.97144C11.2408 3.76728 11.6666 4.00061 11.6666 4.39144C11.6666 4.56061 11.5791 4.71811 11.4333 4.81144Z" fill="#6D6A5D"/>
</g>
<defs>
<clipPath id="clip0_117_5172">
<rect width="14" height="14" fill="white" transform="translate(0 -0.000976562)"/>
</clipPath>
</defs>
</svg>
