<svg width="40" height="40" viewBox="0 0 40 40" fill="none" xmlns="http://www.w3.org/2000/svg">
<path d="M7.42859 27.4866C7.42859 28.4642 8.17859 29.1071 9.45091 29.1071H15.1027C15.2098 31.6919 17.2322 33.9552 20.0581 33.9552C22.8974 33.9552 24.9197 31.7053 25.0268 29.1071H30.6786C31.9375 29.1071 32.7009 28.4642 32.7009 27.4866C32.7009 26.1472 31.3349 24.9419 30.1831 23.7499C29.2991 22.8259 29.0581 20.924 28.9509 19.3838C28.8572 14.1071 27.4911 10.7053 23.9286 9.41958C23.4733 7.66511 22.0402 6.28564 20.0581 6.28564C18.0893 6.28564 16.6429 7.66511 16.2009 9.41958C12.6384 10.7053 11.2723 14.1071 11.1786 19.3838C11.0714 20.924 10.8304 22.8259 9.94644 23.7499C8.78126 24.9419 7.42859 26.1472 7.42859 27.4866ZM10.0268 27.0847V26.924C10.2679 26.5357 11.0714 25.7454 11.7679 24.9687C12.7322 23.8973 13.1875 22.1695 13.3081 19.558C13.4152 13.7053 15.1563 11.8437 17.4464 11.2142C17.7813 11.1339 17.9688 10.9731 17.9822 10.6249C18.0223 9.23207 18.8259 8.2544 20.0581 8.2544C21.3036 8.2544 22.0937 9.23207 22.1473 10.6249C22.1607 10.9731 22.3349 11.1339 22.6696 11.2142C24.9733 11.8437 26.7143 13.7053 26.8215 19.558C26.942 22.1695 27.3974 23.8973 28.3482 24.9687C29.0581 25.7454 29.8482 26.5357 30.0893 26.924V27.0847H10.0268ZM17.192 29.1071H22.9375C22.8304 30.9285 21.6786 32.0669 20.0581 32.0669C18.4509 32.0669 17.2857 30.9285 17.192 29.1071Z" fill="#776EA5"/>
</svg>
