<svg width="24" height="24" viewBox="0 0 24 24" fill="none" xmlns="http://www.w3.org/2000/svg">
<g clip-path="url(#clip0_351_4009)">
<path d="M8.09695 10.1574H15.6907C15.9835 10.1574 16.2331 9.91638 16.2331 9.62361C16.2331 9.3309 15.9835 9.08118 15.6907 9.08118H8.09695C7.80422 9.08118 7.55454 9.3309 7.55454 9.62361C7.55454 9.91638 7.80422 10.1574 8.09695 10.1574ZM8.09695 13.2138H15.6907C15.992 13.2138 16.2331 12.9728 16.2331 12.6715C16.2331 12.3787 15.992 12.1463 15.6907 12.1463H8.09695C7.79561 12.1463 7.55454 12.3787 7.55454 12.6715C7.55454 12.9728 7.79561 13.2138 8.09695 13.2138ZM8.09695 16.4339H11.9197C12.2124 16.4339 12.4535 16.1928 12.4535 15.9001C12.4535 15.6074 12.221 15.3663 11.9197 15.3663H8.09695C7.79561 15.3663 7.55454 15.6074 7.55454 15.9001C7.55454 16.1928 7.80422 16.4339 8.09695 16.4339ZM7.32208 21.8408H16.4656C18.2478 21.8408 19.1346 20.9454 19.1346 19.1373V6.08504C19.1346 4.32006 18.2822 3.3816 16.5603 3.3816H16.3537C16.3623 3.45047 16.3623 3.52796 16.3623 3.59684V4.37171C16.3623 4.50947 16.3537 4.64722 16.3278 4.76776H16.5345C17.3437 4.76776 17.7484 5.29295 17.7484 6.10226V19.1201C17.7484 19.9811 17.2921 20.4546 16.3967 20.4546H7.39096C6.49555 20.4546 6.03924 19.9811 6.03924 19.1201V6.10226C6.03924 5.29295 6.44389 4.76776 7.2532 4.76776H7.45983C7.43401 4.64722 7.4254 4.50947 7.4254 4.37171V3.59684C7.4254 3.52796 7.4254 3.45047 7.43401 3.3816H7.22738C5.50544 3.3816 4.65308 4.32006 4.65308 6.08504V19.1373C4.65308 20.9454 5.53987 21.8408 7.32208 21.8408ZM9.23344 5.35321H14.5543C15.0535 5.35321 15.3549 5.03466 15.3549 4.50086V3.59684C15.3549 3.06304 15.0535 2.74448 14.5543 2.74448H13.7621C13.7019 1.77158 12.8925 0.979492 11.8938 0.979492C10.8951 0.979492 10.0858 1.77158 10.0255 2.74448H9.23344C8.73407 2.74448 8.43273 3.06304 8.43273 3.59684V4.50086C8.43273 5.03466 8.73407 5.35321 9.23344 5.35321ZM11.8938 3.5624C11.4806 3.5624 11.1448 3.21802 11.1448 2.81335C11.1448 2.39149 11.4806 2.0557 11.8938 2.0557C12.3071 2.0557 12.6429 2.39149 12.6429 2.81335C12.6429 3.21802 12.3071 3.5624 11.8938 3.5624Z" fill="white"/>
</g>
<defs>
<clipPath id="clip0_351_4009">
<rect width="14.4815" height="21.86" fill="white" transform="translate(4.65308 0.979492)"/>
</clipPath>
</defs>
</svg>
