<svg width="32" height="32" viewBox="0 0 32 32" fill="none" xmlns="http://www.w3.org/2000/svg">
<g clip-path="url(#clip0_117_4794)">
<path d="M10.7958 13.5437H20.9208C21.3111 13.5437 21.644 13.2222 21.644 12.8319C21.644 12.4416 21.3111 12.1086 20.9208 12.1086H10.7958C10.4055 12.1086 10.0726 12.4416 10.0726 12.8319C10.0726 13.2222 10.4055 13.5437 10.7958 13.5437ZM10.7958 17.6189H20.9208C21.3226 17.6189 21.644 17.2974 21.644 16.8957C21.644 16.5054 21.3226 16.1954 20.9208 16.1954H10.7958C10.394 16.1954 10.0726 16.5054 10.0726 16.8957C10.0726 17.2974 10.394 17.6189 10.7958 17.6189ZM10.7958 21.9123H15.8928C16.2831 21.9123 16.6045 21.5908 16.6045 21.2005C16.6045 20.8103 16.2946 20.4888 15.8928 20.4888H10.7958C10.394 20.4888 10.0726 20.8103 10.0726 21.2005C10.0726 21.5908 10.4055 21.9123 10.7958 21.9123ZM9.76265 29.1214H21.954C24.3302 29.1214 25.5126 27.9276 25.5126 25.5168V8.1138C25.5126 5.76048 24.3762 4.5092 22.0802 4.5092H21.8048C21.8162 4.60104 21.8162 4.70436 21.8162 4.79619V5.82936C21.8162 6.01303 21.8048 6.19671 21.7703 6.35742H22.0458C23.1249 6.35742 23.6644 7.05767 23.6644 8.13676V25.4939C23.6644 26.6419 23.056 27.2732 21.8622 27.2732H9.85449C8.66061 27.2732 8.05219 26.6419 8.05219 25.4939V8.13676C8.05219 7.05767 8.59173 6.35742 9.67081 6.35742H9.94632C9.91189 6.19671 9.90041 6.01303 9.90041 5.82936V4.79619C9.90041 4.70436 9.90041 4.60104 9.91189 4.5092H9.63638C7.34046 4.5092 6.20398 5.76048 6.20398 8.1138V25.5168C6.20398 27.9276 7.38638 29.1214 9.76265 29.1214ZM12.3111 7.13802H19.4055C20.0713 7.13802 20.4731 6.71328 20.4731 6.00155V4.79619C20.4731 4.08446 20.0713 3.65971 19.4055 3.65971H18.3494C18.269 2.36251 17.1899 1.3064 15.8583 1.3064C14.5267 1.3064 13.4476 2.36251 13.3672 3.65971H12.3111C11.6453 3.65971 11.2435 4.08446 11.2435 4.79619V6.00155C11.2435 6.71328 11.6453 7.13802 12.3111 7.13802ZM15.8583 4.75027C15.3073 4.75027 14.8596 4.2911 14.8596 3.75155C14.8596 3.18905 15.3073 2.74134 15.8583 2.74134C16.4094 2.74134 16.857 3.18905 16.857 3.75155C16.857 4.2911 16.4094 4.75027 15.8583 4.75027Z" fill="#776EA5"/>
</g>
<defs>
<clipPath id="clip0_117_4794">
<rect width="19.3086" height="29.1467" fill="white" transform="translate(6.20398 1.3064)"/>
</clipPath>
</defs>
</svg>
