<svg width="56" height="56" viewBox="0 0 56 56" fill="none" xmlns="http://www.w3.org/2000/svg">
<path d="M43.9438 3.5H37.7216C37.1657 3.5 36.6522 3.79652 36.3744 4.27778C36.0966 4.75903 36.0966 5.35209 36.3744 5.83333C36.6522 6.31458 37.1657 6.61111 37.7216 6.61111H42.3883V47.0556H11.2771V6.61111H15.9438C16.4997 6.61111 17.0132 6.31459 17.291 5.83333C17.5688 5.35208 17.5688 4.75902 17.291 4.27778C17.0132 3.79653 16.4997 3.5 15.9438 3.5H9.72157C9.30907 3.5 8.91323 3.66389 8.62157 3.95556C8.32991 4.24722 8.16602 4.64306 8.16602 5.05556V48.6111C8.16602 49.0236 8.32991 49.4195 8.62157 49.7111C8.91323 50.0028 9.30907 50.1667 9.72157 50.1667H43.9438C44.3563 50.1667 44.7522 50.0028 45.0438 49.7111C45.3355 49.4195 45.4994 49.0236 45.4994 48.6111V5.05556C45.4994 4.64306 45.3355 4.24722 45.0438 3.95556C44.7522 3.66389 44.3563 3.5 43.9438 3.5Z" fill="#776EA5"/>
<path d="M20.6093 12.8333H33.0537C33.4662 12.8333 33.8621 12.6694 34.1537 12.3778C34.4454 12.0861 34.6093 11.6903 34.6093 11.2778V5.05556C34.6093 4.64306 34.4454 4.24722 34.1537 3.95556C33.8621 3.66389 33.4662 3.5 33.0537 3.5H20.6093C20.1968 3.5 19.8009 3.66389 19.5093 3.95556C19.2176 4.24722 19.0537 4.64306 19.0537 5.05556V11.2778C19.0537 11.6903 19.2176 12.0861 19.5093 12.3778C19.8009 12.6694 20.1968 12.8333 20.6093 12.8333ZM22.1648 6.61111H31.4982V9.72222H22.1648V6.61111Z" fill="#776EA5"/>
<path d="M20.6093 37.7224C21.0218 37.7224 21.4176 37.5585 21.7093 37.2668C22.0009 36.9751 22.1648 36.5793 22.1648 36.1668V30.5825L26.9714 35.389L24.1714 38.1734C23.877 38.4654 23.7113 38.863 23.7113 39.2779C23.7113 39.6929 23.877 40.0904 24.1714 40.3825C24.4634 40.6769 24.861 40.8425 25.2759 40.8425C25.6909 40.8425 26.0884 40.6769 26.3805 40.3825L29.1648 37.5825L31.9492 40.3825C32.2412 40.6769 32.6388 40.8425 33.0537 40.8425C33.4687 40.8425 33.8662 40.6769 34.1583 40.3825C34.4527 40.0904 34.6183 39.6929 34.6183 39.2779C34.6183 38.863 34.4527 38.4654 34.1583 38.1734L31.3583 35.389L34.1583 32.6047C34.5527 32.2099 34.7069 31.6349 34.5624 31.096C34.418 30.5567 33.9972 30.1359 33.4579 29.9914C32.919 29.847 32.344 30.0012 31.9492 30.3956L29.1648 33.1956L24.3582 28.389H25.2759C27.4989 28.389 29.553 27.2029 30.6645 25.2779C31.7759 23.3529 31.7759 20.9807 30.6645 19.0557C29.553 17.1307 27.4989 15.9446 25.2759 15.9446H20.6093C20.1968 15.9446 19.8009 16.1085 19.5093 16.4001C19.2176 16.6918 19.0537 17.0876 19.0537 17.5001V36.1668C19.0537 36.5793 19.2176 36.9751 19.5093 37.2668C19.8009 37.5585 20.1968 37.7224 20.6093 37.7224ZM22.1648 19.0557H25.2759C26.3874 19.0557 27.4145 19.6488 27.9704 20.6113C28.5259 21.5737 28.5259 22.7599 27.9704 23.7224C27.4144 24.6849 26.3873 25.2779 25.2759 25.2779H22.1648V19.0557Z" fill="#776EA5"/>
</svg>
