<svg width="8" height="14" viewBox="0 0 8 14" fill="none" xmlns="http://www.w3.org/2000/svg">
<path fill-rule="evenodd" clip-rule="evenodd" d="M1.3864 13.553C1.14232 13.7971 0.746594 13.7971 0.502516 13.553C0.258439 13.3089 0.258439 12.9132 0.502516 12.6691L6.17167 6.99999L0.502516 1.33084C0.258439 1.08676 0.258439 0.691032 0.502516 0.446955C0.746594 0.202877 1.14232 0.202876 1.3864 0.446954L7.49356 6.55411C7.49488 6.55541 7.4962 6.55672 7.49751 6.55803C7.61955 6.68007 7.68057 6.84002 7.68057 6.99997C7.68057 7.02198 7.67941 7.04399 7.6771 7.06591C7.66263 7.20324 7.60276 7.3367 7.49751 7.44195C7.4962 7.44326 7.49488 7.44457 7.49356 7.44587L1.3864 13.553Z" fill="black" fill-opacity="0.4"/>
</svg>
