<svg width="20" height="20" viewBox="0 0 20 20" fill="none" xmlns="http://www.w3.org/2000/svg">
<path d="M11.9088 19.2218C12.5114 19.2218 12.9383 18.7028 13.248 17.8993L18.7308 3.57728C18.8814 3.19224 18.9651 2.84905 18.9651 2.56445C18.9651 2.02036 18.6303 1.68555 18.0862 1.68555C17.8016 1.68555 17.4584 1.76925 17.0733 1.91992L2.67604 7.4361C1.97292 7.70396 1.42883 8.13085 1.42883 8.74192C1.42883 9.51199 2.01477 9.77149 2.81834 10.0142L8.86183 11.7888L10.6197 17.757C10.8708 18.6024 11.1303 19.2218 11.9088 19.2218ZM9.23855 10.5165L3.46288 8.75028C3.32895 8.70842 3.28709 8.67492 3.28709 8.61635C3.28709 8.55778 3.32058 8.51592 3.44613 8.4657L14.7631 4.17996C15.4328 3.92885 16.0773 3.59403 16.6967 3.30943C16.1443 3.76143 15.4578 4.29715 14.9975 4.75753L9.23855 10.5165ZM12.0427 17.3803C11.9757 17.3803 11.9423 17.3217 11.9004 17.1878L10.1342 11.4121L15.8931 5.65318C16.3451 5.20117 16.906 4.49805 17.3496 3.92885C17.065 4.565 16.7218 5.20954 16.4707 5.88755L12.185 17.2045C12.1348 17.3301 12.1013 17.3803 12.0427 17.3803Z" fill="white"/>
</svg>
