<svg width="24" height="24" viewBox="0 0 24 24" fill="none" xmlns="http://www.w3.org/2000/svg">
<g clip-path="url(#clip0_351_4033)">
<path d="M15.4353 20.5548C16.7612 20.5548 17.846 19.4699 17.846 18.1441C17.846 16.8182 16.7612 15.7334 15.4353 15.7334C14.1094 15.7334 13.0145 16.8182 13.0145 18.1441C13.0145 19.4699 14.1094 20.5548 15.4353 20.5548ZM15.4353 19.3193C14.7724 19.3193 14.26 18.797 14.26 18.1441C14.26 17.471 14.7724 16.9688 15.4353 16.9688C16.0982 16.9688 16.6105 17.471 16.6105 18.1441C16.6105 18.797 16.0982 19.3193 15.4353 19.3193ZM13.8382 17.3305H2.51787C2.06586 17.3305 1.71429 17.692 1.71429 18.1441C1.71429 18.596 2.06586 18.9476 2.51787 18.9476H13.8382V17.3305ZM21.1808 17.3305H17.1831V18.9476H21.1808C21.5926 18.9476 21.9543 18.596 21.9543 18.1441C21.9543 17.692 21.5926 17.3305 21.1808 17.3305ZM8.34376 14.4275C9.66965 14.4275 10.7545 13.3327 10.7545 12.0068C10.7545 10.6809 9.66965 9.59605 8.34376 9.59605C7.01787 9.59605 5.93305 10.6809 5.93305 12.0068C5.93305 13.3327 7.01787 14.4275 8.34376 14.4275ZM8.34376 13.182C7.69086 13.182 7.16853 12.6596 7.16853 12.0068C7.16853 11.3438 7.69086 10.8315 8.34376 10.8315C9.0067 10.8315 9.51898 11.3438 9.51898 12.0068C9.51898 12.6596 9.0067 13.182 8.34376 13.182ZM2.47769 11.1931C2.06586 11.1931 1.71429 11.5548 1.71429 12.0068C1.71429 12.4588 2.06586 12.8103 2.47769 12.8103H6.61608V11.1931H2.47769ZM21.1407 11.1931H9.94086V12.8103H21.1407C21.5926 12.8103 21.9543 12.4588 21.9543 12.0068C21.9543 11.5548 21.5926 11.1931 21.1407 11.1931ZM15.4353 8.28021C16.7612 8.28021 17.846 7.19538 17.846 5.86949C17.846 4.5436 16.7612 3.44873 15.4353 3.44873C14.1094 3.44873 13.0145 4.5436 13.0145 5.86949C13.0145 7.19538 14.1094 8.28021 15.4353 8.28021ZM15.4353 7.04471C14.7724 7.04471 14.26 6.5224 14.26 5.85945C14.26 5.1965 14.7724 4.68422 15.4353 4.68422C16.0982 4.68422 16.6105 5.1965 16.6105 5.85945C16.6105 6.5224 16.0982 7.04471 15.4353 7.04471ZM13.8884 5.06592H2.51787C2.06586 5.06592 1.71429 5.41748 1.71429 5.86949C1.71429 6.3215 2.06586 6.68311 2.51787 6.68311H13.8884V5.06592ZM21.1808 5.06592H17.0424V6.68311H21.1808C21.5926 6.68311 21.9543 6.3215 21.9543 5.86949C21.9543 5.41748 21.5926 5.06592 21.1808 5.06592Z" fill="white"/>
</g>
<defs>
<clipPath id="clip0_351_4033">
<rect width="20.24" height="17.1261" fill="white" transform="translate(1.71429 3.42847)"/>
</clipPath>
</defs>
</svg>
