<svg width="24" height="24" viewBox="0 0 24 24" fill="none" xmlns="http://www.w3.org/2000/svg">
<g clip-path="url(#clip0_351_4013)">
<path d="M13.2714 23.4077C16.7325 23.4077 18.7988 22.1852 18.7988 20.1533V15.4266C20.2882 14.1523 21.1665 12.0774 21.1665 9.78722C21.1665 4.49225 17.7312 0.979492 12.5912 0.979492C7.47704 0.979492 4.06759 4.42337 4.06759 9.58922C4.06759 9.90771 4.0762 10.166 4.10204 10.4071L2.90529 12.5509C2.59534 13.1105 2.44897 13.6358 2.44897 14.1265C2.44897 15.0822 3.05165 15.8484 4.06759 16.0723V18.0181C4.06759 19.6453 5.19547 20.4288 6.67634 20.2738L8.43271 20.0844L7.82142 19.4387V20.1533C7.82142 22.1852 9.85329 23.4077 13.2714 23.4077ZM13.2714 22.0216C10.6884 22.0216 9.1301 21.2036 9.1301 19.8778V18.7844C9.1301 18.6638 9.06122 18.6121 8.94069 18.6207L6.49553 18.8963C5.83259 18.9652 5.45375 18.6724 5.45375 17.9148V15.0564C5.45375 14.9703 5.38488 14.9099 5.28156 14.9099H4.82525C4.20535 14.9099 3.85236 14.6001 3.85236 14.1007C3.85236 13.851 3.93845 13.5497 4.11065 13.2397L5.53124 10.6913C5.47098 10.3124 5.44514 9.93357 5.44514 9.57196C5.44514 5.24129 8.29496 2.36565 12.5912 2.36565C16.8961 2.36565 19.7803 5.32739 19.7803 9.78722C19.7803 11.931 18.8849 13.7907 17.4126 14.7378V19.8778C17.4126 21.2036 15.8543 22.0216 13.2714 22.0216ZM6.85714 8.12554C6.85714 9.78722 8.01084 10.9065 9.71555 10.9065C11.3945 10.9065 12.5396 9.90771 12.5396 8.40967C12.5396 7.78976 12.3243 7.26457 11.9282 6.9374C11.7561 6.79104 11.6355 6.73937 11.4719 6.73937C11.2222 6.73937 11.0328 6.90296 11.0328 7.14403C11.0328 7.41094 11.2051 7.49703 11.3772 7.66061C11.5494 7.8328 11.6527 8.08249 11.6527 8.39241C11.6527 9.36536 10.8865 10.0111 9.72416 10.0111C8.53603 10.0111 7.75255 9.26199 7.75255 8.12554C7.75255 7.43676 8.11416 6.79965 8.70822 6.46386L8.26052 5.66317C7.40816 6.16253 6.85714 7.1182 6.85714 8.12554ZM8.04528 5.81814C8.04528 6.88574 8.80293 7.60896 9.91361 7.60896C10.1461 7.60896 10.3613 7.40233 10.3613 7.16125C10.3613 6.92018 10.1547 6.71355 9.91361 6.71355C9.32812 6.71355 8.94069 6.36055 8.94069 5.81814C8.94069 5.2499 9.41422 4.83664 10.0686 4.83664C10.4216 4.83664 10.7832 4.96578 11.0759 5.18963L11.6011 4.45781C11.1534 4.12203 10.6282 3.94123 10.0772 3.94123C8.92346 3.94123 8.04528 4.74193 8.04528 5.81814ZM10.4043 5.69761C10.3957 5.96451 10.5851 6.17114 10.852 6.17114C11.1104 6.17114 11.2825 5.99894 11.2912 5.73204C11.3342 4.92273 11.911 4.3631 12.7118 4.35449C13.1853 4.35449 13.6071 4.60417 13.7708 5.00022C13.8396 5.12937 13.9774 5.12937 14.1754 5.0777C14.2787 5.04327 14.3992 5.03466 14.5198 5.03466C15.329 5.03466 15.9576 5.66317 15.9576 6.49831C15.9576 8.52157 13.0045 8.1772 13.0045 10.3296C13.0045 11.3025 13.7879 11.9913 14.89 11.9913C14.9675 11.9913 15.0449 11.9913 15.1396 11.9913C15.2861 12.8695 15.8543 13.4722 16.5602 13.4722C17.5762 13.4722 18.2994 12.3099 18.2994 10.6999C18.2994 10.0713 18.2564 9.65806 18.222 9.26199L17.3093 9.52031C17.3524 9.90771 17.404 10.2435 17.404 10.6826C17.404 11.7416 17.0252 12.5768 16.5602 12.5768C16.1556 12.5768 15.8887 12.0774 15.8887 11.3542C15.8887 11.2336 15.8026 11.1734 15.6907 11.1734C15.5529 11.1734 15.3894 11.182 15.2861 11.182C14.3648 11.182 13.9085 10.8893 13.9085 10.321C13.9085 8.75402 16.8616 9.20175 16.8616 6.49831C16.8616 5.15519 15.8801 4.13064 14.6059 4.13064C14.5112 4.13064 14.3992 4.13925 14.2873 4.16508C13.9085 3.72598 13.3316 3.46769 12.7118 3.46769C11.4117 3.46769 10.456 4.38032 10.4043 5.69761ZM15.639 10.0369C15.639 10.2779 15.8198 10.4674 16.0695 10.4932C17.6365 10.5879 18.7041 9.64947 18.7041 8.16859C18.7041 6.90296 17.7828 5.94729 16.4225 5.81814L16.2847 6.72216C17.1974 6.67911 17.8086 7.26457 17.8086 8.16859C17.8086 9.09845 17.1285 9.67526 16.0867 9.59782C15.8543 9.58055 15.639 9.79582 15.639 10.0369ZM13.4866 10.5276C13.2197 10.6309 12.8753 10.6913 12.5567 10.6913C11.7561 10.6913 10.9984 10.3468 10.7918 9.88192L10.0427 10.5018C10.5421 11.182 11.4547 11.5866 12.4879 11.5866C12.9098 11.5866 13.3661 11.5178 13.7794 11.38L13.4866 10.5276ZM11.8766 7.42815L12.1693 8.28912C13.3402 8.0911 13.9602 7.3851 13.9602 6.2228C13.9602 5.99033 13.7449 5.77509 13.5038 5.77509C13.2628 5.77509 13.0647 5.98172 13.0647 6.23141C13.0647 6.98906 12.7031 7.34206 11.8766 7.42815Z" fill="white"/>
</g>
<defs>
<clipPath id="clip0_351_4013">
<rect width="18.7175" height="22.4971" fill="white" transform="translate(2.44897 0.979492)"/>
</clipPath>
</defs>
</svg>
