<svg width="14" height="14" viewBox="0 0 14 14" fill="none" xmlns="http://www.w3.org/2000/svg">
<g clip-path="url(#clip0_117_5167)">
<path d="M11.2175 8.90072L9.73586 8.73155C9.38002 8.69072 9.03002 8.81322 8.77919 9.06405L7.70586 10.1374C6.05502 9.29738 4.70169 7.94988 3.86169 6.29322L4.94086 5.21405C5.19169 4.96322 5.31419 4.61322 5.27336 4.25738L5.10419 2.78738C5.03419 2.19822 4.53836 1.75488 3.94336 1.75488H2.93419C2.27502 1.75488 1.72669 2.30322 1.76752 2.96238C2.07669 7.94405 6.06086 11.9224 11.0367 12.2315C11.6959 12.2724 12.2442 11.724 12.2442 11.0649V10.0557C12.25 9.46655 11.8067 8.97072 11.2175 8.90072Z" fill="#6D6A5D"/>
</g>
<defs>
<clipPath id="clip0_117_5167">
<rect width="14" height="14" fill="white" transform="translate(0 -0.000976562)"/>
</clipPath>
</defs>
</svg>
