<svg width="24" height="24" viewBox="0 0 24 24" fill="none" xmlns="http://www.w3.org/2000/svg">
<path fill-rule="evenodd" clip-rule="evenodd" d="M12.1395 1.71436C9.4125 1.71436 7.18951 3.93189 7.18951 6.65626C7.18951 8.41561 8.11679 9.96537 9.50821 10.8424C6.22191 11.9386 3.85712 15.0335 3.85712 18.6871V21.2627C3.8558 21.5898 4.1201 21.856 4.4472 21.8572H19.831C20.1581 21.8561 20.4225 21.5898 20.4211 21.2627V18.6871C20.4211 15.0335 18.0565 11.9388 14.77 10.8424C16.1614 9.96537 17.0887 8.41561 17.0887 6.65626C17.0887 3.9321 14.8659 1.71436 12.1388 1.71436H12.1395ZM12.1395 2.89569C14.2272 2.89569 15.9045 4.57325 15.9045 6.65605C15.9045 8.73889 14.2272 10.4176 12.1395 10.4176C10.0517 10.4176 8.37444 8.73889 8.37444 6.65605C8.37444 4.5732 10.0517 2.89569 12.1395 2.89569ZM12.1395 11.6023C16.0828 11.6023 19.2369 14.7513 19.2369 18.687V20.6725L5.04248 20.6723V18.6868C5.04248 14.7513 8.19638 11.6021 12.1399 11.6021L12.1395 11.6023ZM14.8596 14.7597C14.7024 14.7592 14.5515 14.821 14.4401 14.9316C14.3286 15.0423 14.2656 15.1928 14.2649 15.3499V16.5L13.1148 16.4999C12.957 16.4994 12.8052 16.5619 12.6937 16.6734C12.5819 16.7852 12.5194 16.9367 12.5201 17.0946C12.5208 17.2518 12.5837 17.4022 12.6953 17.5129C12.8067 17.6235 12.9576 17.6853 13.1148 17.6847H14.2649V18.8348C14.2656 18.992 14.3286 19.1424 14.4401 19.2531C14.5515 19.3637 14.7024 19.4255 14.8596 19.4249C15.1849 19.4237 15.4484 19.1602 15.4497 18.8348V17.6847H16.5998C16.757 17.6854 16.9079 17.6235 17.0193 17.513C17.1309 17.4022 17.1939 17.2518 17.1945 17.0946C17.1952 16.9368 17.1327 16.7852 17.021 16.6735C16.9094 16.5619 16.7577 16.4994 16.5998 16.4999H15.4497V15.35C15.4484 15.0245 15.1849 14.761 14.8596 14.7597Z" fill="white"/>
</svg>
