<svg width="24" height="24" viewBox="0 0 24 24" fill="none" xmlns="http://www.w3.org/2000/svg">
<path d="M7.41965 6.3751H21.1407C21.5926 6.3751 21.9543 6.02354 21.9543 5.57153C21.9543 5.10948 21.5926 4.75792 21.1407 4.75792H7.41965C6.9576 4.75792 6.60603 5.10948 6.60603 5.57153C6.60603 6.02354 6.9576 6.3751 7.41965 6.3751ZM7.41965 12.4521H21.1407C21.5926 12.4521 21.9543 12.0905 21.9543 11.6385C21.9543 11.1865 21.5926 10.8349 21.1407 10.8349H7.41965C6.9576 10.8349 6.60603 11.1865 6.60603 11.6385C6.60603 12.0905 6.9576 12.4521 7.41965 12.4521ZM7.41965 18.5191H21.1407C21.5926 18.5191 21.9543 18.1675 21.9543 17.7155C21.9543 17.2534 21.5926 16.9019 21.1407 16.9019H7.41965C6.9576 16.9019 6.60603 17.2534 6.60603 17.7155C6.60603 18.1675 6.9576 18.5191 7.41965 18.5191ZM2.97992 6.82711C3.68305 6.82711 4.24554 6.26461 4.24554 5.57153C4.24554 4.86841 3.68305 4.30591 2.97992 4.30591C2.27679 4.30591 1.71429 4.86841 1.71429 5.57153C1.71429 6.26461 2.27679 6.82711 2.97992 6.82711ZM2.97992 12.9041C3.68305 12.9041 4.24554 12.3416 4.24554 11.6385C4.24554 10.9354 3.68305 10.3729 2.97992 10.3729C2.27679 10.3729 1.71429 10.9354 1.71429 11.6385C1.71429 12.3416 2.27679 12.9041 2.97992 12.9041ZM2.97992 18.9811C3.68305 18.9811 4.24554 18.4086 4.24554 17.7155C4.24554 17.0124 3.68305 16.4499 2.97992 16.4499C2.27679 16.4499 1.71429 17.0124 1.71429 17.7155C1.71429 18.4086 2.27679 18.9811 2.97992 18.9811Z" fill="white"/>
</svg>
