<svg width="14" height="14" viewBox="0 0 14 14" fill="none" xmlns="http://www.w3.org/2000/svg">
<g clip-path="url(#clip0_117_5180)">
<path d="M7.00004 1.16675C4.55004 1.16675 2.33337 3.04508 2.33337 5.95008C2.33337 7.80508 3.76254 9.98675 6.61504 12.5009C6.83671 12.6934 7.16921 12.6934 7.39087 12.5009C10.2375 9.98675 11.6667 7.80508 11.6667 5.95008C11.6667 3.04508 9.45004 1.16675 7.00004 1.16675ZM7.00004 7.00008C6.35837 7.00008 5.83337 6.47508 5.83337 5.83341C5.83337 5.19175 6.35837 4.66675 7.00004 4.66675C7.64171 4.66675 8.16671 5.19175 8.16671 5.83341C8.16671 6.47508 7.64171 7.00008 7.00004 7.00008Z" fill="#6D6A5D"/>
</g>
<defs>
<clipPath id="clip0_117_5180">
<rect width="14" height="14" fill="white"/>
</clipPath>
</defs>
</svg>
