<svg width="12" height="7" viewBox="0 0 12 7" fill="none" xmlns="http://www.w3.org/2000/svg">
<path fill-rule="evenodd" clip-rule="evenodd" d="M11.2425 1.34891C11.4377 1.15365 11.4377 0.83707 11.2425 0.641808C11.0472 0.446546 10.7306 0.446546 10.5354 0.641808L6.00024 5.17693L1.46513 0.641808C1.26986 0.446546 0.953281 0.446546 0.758018 0.641808C0.562757 0.83707 0.562757 1.15365 0.758018 1.34891L5.63419 6.22508C5.63819 6.22938 5.64229 6.23362 5.64647 6.2378C5.74416 6.33549 5.87221 6.38431 6.00024 6.38425C6.12828 6.38431 6.25633 6.33549 6.35401 6.2378C6.3582 6.23362 6.3623 6.22938 6.3663 6.22508L11.2425 1.34891Z" fill="#776EA5"/>
</svg>
