<svg width="18" height="18" viewBox="0 0 18 18" fill="none" xmlns="http://www.w3.org/2000/svg">
<path d="M1.92859 7.29736C1.92859 10.6121 4.62557 13.3091 7.94031 13.3091C9.25112 13.3091 10.449 12.8872 11.4359 12.1791L15.1423 15.8931C15.3156 16.0663 15.5416 16.1492 15.7827 16.1492C16.295 16.1492 16.649 15.765 16.649 15.2603C16.649 15.0192 16.5586 14.8007 16.4004 14.6425L12.7165 10.936C13.4925 9.92654 13.952 8.66847 13.952 7.29736C13.952 3.98263 11.255 1.28564 7.94031 1.28564C4.62557 1.28564 1.92859 3.98263 1.92859 7.29736ZM3.21682 7.29736C3.21682 4.69078 5.33373 2.57387 7.94031 2.57387C10.5469 2.57387 12.6638 4.69078 12.6638 7.29736C12.6638 9.90392 10.5469 12.0208 7.94031 12.0208C5.33373 12.0208 3.21682 9.90392 3.21682 7.29736Z" fill="#7D7D7D"/>
</svg>
