<svg width="24" height="24" viewBox="0 0 24 24" fill="none" xmlns="http://www.w3.org/2000/svg">
<path d="M19.6769 7.49709C19.9875 8.03505 19.8033 8.72308 19.2651 9.03387C18.727 9.34444 18.039 9.16022 17.7284 8.62207C17.4176 8.08391 17.602 7.39588 18.14 7.08529C18.6781 6.77453 19.3662 6.95895 19.6769 7.49709Z" fill="#776EA5"/>
<path d="M20.8009 11.4378C20.6343 11.1505 20.3493 10.9516 20.0222 10.8941C19.6952 10.8367 19.3595 10.9267 19.105 11.1402C18.8506 11.3534 18.7032 11.6683 18.7026 12.0003C18.7026 13.7905 17.9914 15.5076 16.7256 16.7734C15.4598 18.0392 13.7427 18.7504 11.9525 18.7504C10.1623 18.7504 8.44521 18.0392 7.17939 16.7734C5.91357 15.5076 5.20239 13.7905 5.20239 12.0003C5.20239 10.21 5.91357 8.49296 7.17939 7.22714C8.44521 5.96133 10.1623 5.25014 11.9525 5.25014C12.1497 5.25152 12.3435 5.2009 12.515 5.10379C12.8061 4.93879 13.0086 4.65294 13.0676 4.32374C13.1269 3.99453 13.0363 3.6559 12.8208 3.40006C12.6052 3.14422 12.287 2.99767 11.9525 3.00003C9.56547 3.00003 7.27632 3.94822 5.58851 5.63603C3.90071 7.32403 2.95251 9.61323 2.95251 12C2.95251 14.3868 3.90071 16.6762 5.58851 18.364C7.27652 20.0518 9.56572 21 11.9525 21C14.3393 21 16.6287 20.0518 18.3165 18.364C20.0043 16.676 20.9525 14.3868 20.9525 12C20.9521 11.8025 20.8997 11.6084 20.8006 11.4375L20.8009 11.4378Z" fill="#776EA5"/>
<path d="M16.457 4.27466C16.9951 4.58543 17.1795 5.27348 16.8688 5.81164C16.5582 6.3496 15.8701 6.53403 15.332 6.22345C14.7938 5.91268 14.6096 5.22463 14.9202 4.68647C15.2309 4.14831 15.919 3.96408 16.457 4.27466Z" fill="#776EA5"/>
<path d="M11.3897 7.50025C11.0913 7.50025 10.805 7.61895 10.5941 7.82985C10.3832 8.04075 10.2645 8.327 10.2645 8.62541V11.438C10.2645 12.0348 10.5017 12.6071 10.9237 13.0289C11.3455 13.4509 11.9178 13.6881 12.5146 13.6881H14.7648C15.0632 13.6881 15.3492 13.5694 15.5603 13.3585C15.7712 13.1476 15.8897 12.8614 15.8897 12.563C15.8897 12.2646 15.7712 11.9785 15.5603 11.7674C15.3492 11.5565 15.0632 11.438 14.7648 11.438H12.5146V8.62541C12.5146 8.327 12.3961 8.04074 12.1852 7.82984C11.9741 7.61894 11.6881 7.50025 11.3897 7.50025Z" fill="#776EA5"/>
</svg>
